<svg xmlns="http://www.w3.org/2000/svg" viewBox="0 0 121.02 133.79"><defs><style>.cls-1{fill:#5252af;}.cls-2{fill:none;stroke:#000;stroke-linecap:round;stroke-linejoin:round;stroke-width:4.21px;}</style></defs><g id="Layer_2" data-name="Layer 2"><g id="svg2211"><rect class="cls-1" width="121.02" height="133.79" rx="19.91"/><g id="g3173"><path id="path2399" class="cls-2" d="M78.45,66.75c1.69.79,3.65,1.78,3,7.29-1.78,4.83-5.18,8.95-13.76,8.64C60.86,81,53.39,79.07,54,65.39c.6-7.06,8-16.87,20.56-17,18.18.25,27.09,16.27,26.33,28.65-.93,17.63-15.06,26.78-34.49,28.48-10.42,0-22.51-5.68-28-14.24-6.88-8.9-9.54-27.24-3.74-39.33C40.76,39.06,52.35,30.92,66,30.64A45.13,45.13,0,0,1,91.87,38.1l11.21-10.85"/><path id="path2401" class="cls-2" d="M37,47.76c-6.72,10.46-11.22,24.08-15.8,32.38-3.28,7.12-7.76,11.19-12.4,16.61,18.44,10.67,46.86,11.54,65.32,7.72"/></g></g></g></svg>